{"asset":{"generator":"FBX2glTF v0.9.7","version":"2.0"},"scene":0,"buffers":[{"byteLength":185116,"uri":"data:application/octet-stream;base64,"}],"bufferViews":[{"buffer":0,"byteLength":88,"byteOffset":0},{"buffer":0,"byteLength":264,"byteOffset":88},{"buffer":0,"byteLength":352,"byteOffset":352},{"buffer":0,"byteLength":264,"byteOffset":704},{"buffer":0,"byteLength":352,"byteOffset":968},{"buffer":0,"byteLength":352,"byteOffset":1320},{"buffer":0,"byteLength":352,"byteOffset":1672},{"buffer":0,"byteLength":352,"byteOffset":2024},{"buffer":0,"byteLength":352,"byteOffset":2376},{"buffer":0,"byteLength":352,"byteOffset":2728},{"buffer":0,"byteLength":352,"byteOffset":3080},{"buffer":0,"byteLength":352,"byteOffset":3432},{"buffer":0,"byteLength":352,"byteOffset":3784},{"buffer":0,"byteLength":352,"byteOffset":4136},{"buffer":0,"byteLength":352,"byteOffset":4488},{"buffer":0,"byteLength":352,"byteOffset":4840},{"buffer":0,"byteLength":264,"byteOffset":5192},{"buffer":0,"byteLength":352,"byteOffset":5456},{"buffer":0,"byteLength":352,"byteOffset":5808},{"buffer":0,"byteLength":264,"byteOffset":6160},{"buffer":0,"byteLength":352,"byteOffset":6424},{"buffer":0,"byteLength":352,"byteOffset":6776},{"buffer":0,"byteLength":124,"byteOffset":7128},{"buffer":0,"byteLength":372,"byteOffset":7252},{"buffer":0,"byteLength":372,"byteOffset":7624},{"buffer":0,"byteLength":496,"byteOffset":7996},{"buffer":0,"byteLength":496,"byteOffset":8492},{"buffer":0,"byteLength":496,"byteOffset":8988},{"buffer":0,"byteLength":496,"byteOffset":9484},{"buffer":0,"byteLength":496,"byteOffset":9980},{"buffer":0,"byteLength":496,"byteOffset":10476},{"buffer":0,"byteLength":496,"byteOffset":10972},{"buffer":0,"byteLength":496,"byteOffset":11468},{"buffer":0,"byteLength":496,"byteOffset":11964},{"buffer":0,"byteLength":496,"byteOffset":12460},{"buffer":0,"byteLength":496,"byteOffset":12956},{"buffer":0,"byteLength":496,"byteOffset":13452},{"buffer":0,"byteLength":372,"byteOffset":13948},{"buffer":0,"byteLength":496,"byteOffset":14320},{"buffer":0,"byteLength":496,"byteOffset":14816},{"buffer":0,"byteLength":372,"byteOffset":15312},{"buffer":0,"byteLength":496,"byteOffset":15684},{"buffer":0,"byteLength":496,"byteOffset":16180},{"buffer":0,"byteLength":120,"byteOffset":16676},{"buffer":0,"byteLength":360,"byteOffset":16796},{"buffer":0,"byteLength":480,"byteOffset":17156},{"buffer":0,"byteLength":360,"byteOffset":17636},{"buffer":0,"byteLength":480,"byteOffset":17996},{"buffer":0,"byteLength":480,"byteOffset":18476},{"buffer":0,"byteLength":480,"byteOffset":18956},{"buffer":0,"byteLength":480,"byteOffset":19436},{"buffer":0,"byteLength":480,"byteOffset":19916},{"buffer":0,"byteLength":480,"byteOffset":20396},{"buffer":0,"byteLength":480,"byteOffset":20876},{"buffer":0,"byteLength":480,"byteOffset":21356},{"buffer":0,"byteLength":480,"byteOffset":21836},{"buffer":0,"byteLength":480,"byteOffset":22316},{"buffer":0,"byteLength":480,"byteOffset":22796},{"buffer":0,"byteLength":480,"byteOffset":23276},{"buffer":0,"byteLength":480,"byteOffset":23756},{"buffer":0,"byteLength":480,"byteOffset":24236},{"buffer":0,"byteLength":480,"byteOffset":24716},{"buffer":0,"byteLength":480,"byteOffset":25196},{"buffer":0,"byteLength":480,"byteOffset":25676},{"buffer":0,"byteLength":480,"byteOffset":26156},{"buffer":0,"byteLength":480,"byteOffset":26636},{"buffer":0,"byteLength":124,"byteOffset":27116},{"buffer":0,"byteLength":372,"byteOffset":27240},{"buffer":0,"byteLength":496,"byteOffset":27612},{"buffer":0,"byteLength":496,"byteOffset":28108},{"buffer":0,"byteLength":496,"byteOffset":28604},{"buffer":0,"byteLength":496,"byteOffset":29100},{"buffer":0,"byteLength":496,"byteOffset":29596},{"buffer":0,"byteLength":496,"byteOffset":30092},{"buffer":0,"byteLength":496,"byteOffset":30588},{"buffer":0,"byteLength":496,"byteOffset":31084},{"buffer":0,"byteLength":496,"byteOffset":31580},{"buffer":0,"byteLength":496,"byteOffset":32076},{"buffer":0,"byteLength":496,"byteOffset":32572},{"buffer":0,"byteLength":496,"byteOffset":33068},{"buffer":0,"byteLength":496,"byteOffset":33564},{"buffer":0,"byteLength":124,"byteOffset":34060},{"buffer":0,"byteLength":372,"byteOffset":34184},{"buffer":0,"byteLength":372,"byteOffset":34556},{"buffer":0,"byteLength":496,"byteOffset":34928},{"buffer":0,"byteLength":496,"byteOffset":35424},{"buffer":0,"byteLength":496,"byteOffset":35920},{"buffer":0,"byteLength":496,"byteOffset":36416},{"buffer":0,"byteLength":496,"byteOffset":36912},{"buffer":0,"byteLength":496,"byteOffset":37408},{"buffer":0,"byteLength":496,"byteOffset":37904},{"buffer":0,"byteLength":496,"byteOffset":38400},{"buffer":0,"byteLength":496,"byteOffset":38896},{"buffer":0,"byteLength":496,"byteOffset":39392},{"buffer":0,"byteLength":496,"byteOffset":39888},{"buffer":0,"byteLength":496,"byteOffset":40384},{"buffer":0,"byteLength":372,"byteOffset":40880},{"buffer":0,"byteLength":496,"byteOffset":41252},{"buffer":0,"byteLength":496,"byteOffset":41748},{"buffer":0,"byteLength":372,"byteOffset":42244},{"buffer":0,"byteLength":496,"byteOffset":42616},{"buffer":0,"byteLength":496,"byteOffset":43112},{"buffer":0,"byteLength":720,"byteOffset":43608,"target":34963},{"buffer":0,"byteLength":4320,"byteOffset":44328,"target":34962},{"buffer":0,"byteLength":4320,"byteOffset":48648,"target":34962},{"buffer":0,"byteLength":2880,"byteOffset":52968,"target":34962},{"buffer":0,"byteLength":2880,"byteOffset":55848,"target":34962},{"buffer":0,"byteLength":720,"byteOffset":58728,"target":34963},{"buffer":0,"byteLength":3360,"byteOffset":59448,"target":34962},{"buffer":0,"byteLength":3360,"byteOffset":62808,"target":34962},{"buffer":0,"byteLength":2240,"byteOffset":66168,"target":34962},{"buffer":0,"byteLength":2240,"byteOffset":68408,"target":34962},{"buffer":0,"byteLength":4140,"byteOffset":70648,"target":34963},{"buffer":0,"byteLength":17256,"byteOffset":74788,"target":34962},{"buffer":0,"byteLength":17256,"byteOffset":92044,"target":34962},{"buffer":0,"byteLength":11504,"byteOffset":109300,"target":34962},{"buffer":0,"byteLength":11504,"byteOffset":120804,"target":34962},{"buffer":0,"byteLength":11504,"byteOffset":132308,"target":34962},{"buffer":0,"byteLength":23008,"byteOffset":143812,"target":34962},{"buffer":0,"byteLength":96,"byteOffset":166820,"target":34963},{"buffer":0,"byteLength":432,"byteOffset":166916,"target":34962},{"buffer":0,"byteLength":432,"byteOffset":167348,"target":34962},{"buffer":0,"byteLength":288,"byteOffset":167780,"target":34962},{"buffer":0,"byteLength":288,"byteOffset":168068,"target":34962},{"buffer":0,"byteLength":288,"byteOffset":168356,"target":34962},{"buffer":0,"byteLength":576,"byteOffset":168644,"target":34962},{"buffer":0,"byteLength":492,"byteOffset":169220,"target":34963},{"buffer":0,"byteLength":2136,"byteOffset":169712,"target":34962},{"buffer":0,"byteLength":2136,"byteOffset":171848,"target":34962},{"buffer":0,"byteLength":1424,"byteOffset":173984,"target":34962},{"buffer":0,"byteLength":1424,"byteOffset":175408,"target":34962},{"buffer":0,"byteLength":1424,"byteOffset":176832,"target":34962},{"buffer":0,"byteLength":2848,"byteOffset":178256,"target":34962},{"buffer":0,"byteLength":108,"byteOffset":181104,"target":34963},{"buffer":0,"byteLength":456,"byteOffset":181212,"target":34962},{"buffer":0,"byteLength":456,"byteOffset":181668,"target":34962},{"buffer":0,"byteLength":304,"byteOffset":182124,"target":34962},{"buffer":0,"byteLength":304,"byteOffset":182428,"target":34962},{"buffer":0,"byteLength":304,"byteOffset":182732,"target":34962},{"buffer":0,"byteLength":608,"byteOffset":183036,"target":34962},{"buffer":0,"byteLength":1472,"byteOffset":183644}],"scenes":[{"name":"Root Scene","nodes":[0]}],"accessors":[{"componentType":5126,"type":"SCALAR","count":22,"bufferView":0,"byteOffset":0,"min":[0],"max":[0.875]},{"componentType":5126,"type":"VEC3","count":22,"bufferView":1,"byteOffset":0},{"componentType":5126,"type":"VEC4","count":22,"bufferView":2,"byteOffset":0},{"componentType":5126,"type":"VEC3","count":22,"bufferView":3,"byteOffset":0},{"componentType":5126,"type":"VEC4","count":22,"bufferView":4,"byteOffset":0},{"componentType":5126,"type":"VEC4","count":22,"bufferView":5,"byteOffset":0},{"componentType":5126,"type":"VEC4","count":22,"bufferView":6,"byteOffset":0},{"componentType":5126,"type":"VEC4","count":22,"bufferView":7,"byteOffset":0},{"componentType":5126,"type":"VEC4","count":22,"bufferView":8,"byteOffset":0},{"componentType":5126,"type":"VEC4","count":22,"bufferView":9,"byteOffset":0},{"componentType":5126,"type":"VEC4","count":22,"bufferView":10,"byteOffset":0},{"componentType":5126,"type":"VEC4","count":22,"bufferView":11,"byteOffset":0},{"componentType":5126,"type":"VEC4","count":22,"bufferView":12,"byteOffset":0},{"componentType":5126,"type":"VEC4","count":22,"bufferView":13,"byteOffset":0},{"componentType":5126,"type":"VEC4","count":22,"bufferView":14,"byteOffset":0},{"componentType":5126,"type":"VEC4","count":22,"bufferView":15,"byteOffset":0},{"componentType":5126,"type":"VEC3","count":22,"bufferView":16,"byteOffset":0},{"componentType":5126,"type":"VEC4","count":22,"bufferView":17,"byteOffset":0},{"componentType":5126,"type":"VEC4","count":22,"bufferView":18,"byteOffset":0},{"componentType":5126,"type":"VEC3","count":22,"bufferView":19,"byteOffset":0},{"componentType":5126,"type":"VEC4","count":22,"bufferView":20,"byteOffset":0},{"componentType":5126,"type":"VEC4","count":22,"bufferView":21,"byteOffset":0},{"componentType":5126,"type":"SCALAR","count":31,"bufferView":22,"byteOffset":0,"min":[0],"max":[1.25]},{"componentType":5126,"type":"VEC3","count":31,"bufferView":23,"byteOffset":0},{"componentType":5126,"type":"VEC3","count":31,"bufferView":24,"byteOffset":0},{"componentType":5126,"type":"VEC4","count":31,"bufferView":25,"byteOffset":0},{"componentType":5126,"type":"VEC4","count":31,"bufferView":26,"byteOffset":0},{"componentType":5126,"type":"VEC4","count":31,"bufferView":27,"byteOffset":0},{"componentType":5126,"type":"VEC4","count":31,"bufferView":28,"byteOffset":0},{"componentType":5126,"type":"VEC4","count":31,"bufferView":29,"byteOffset":0},{"componentType":5126,"type":"VEC4","count":31,"bufferView":30,"byteOffset":0},{"componentType":5126,"type":"VEC4","count":31,"bufferView":31,"byteOffset":0},{"componentType":5126,"type":"VEC4","count":31,"bufferView":32,"byteOffset":0},{"componentType":5126,"type":"VEC4","count":31,"bufferView":33,"byteOffset":0},{"componentType":5126,"type":"VEC4","count":31,"bufferView":34,"byteOffset":0},{"componentType":5126,"type":"VEC4","count":31,"bufferView":35,"byteOffset":0},{"componentType":5126,"type":"VEC4","count":31,"bufferView":36,"byteOffset":0},{"componentType":5126,"type":"VEC3","count":31,"bufferView":37,"byteOffset":0},{"componentType":5126,"type":"VEC4","count":31,"bufferView":38,"byteOffset":0},{"componentType":5126,"type":"VEC4","count":31,"bufferView":39,"byteOffset":0},{"componentType":5126,"type":"VEC3","count":31,"bufferView":40,"byteOffset":0},{"componentType":5126,"type":"VEC4","count":31,"bufferView":41,"byteOffset":0},{"componentType":5126,"type":"VEC4","count":31,"bufferView":42,"byteOffset":0},{"componentType":5126,"type":"SCALAR","count":30,"bufferView":43,"byteOffset":0,"min":[0],"max":[1.20833337306976]},{"componentType":5126,"type":"VEC3","count":30,"bufferView":44,"byteOffset":0},{"componentType":5126,"type":"VEC4","count":30,"bufferView":45,"byteOffset":0},{"componentType":5126,"type":"VEC3","count":30,"bufferView":46,"byteOffset":0},{"componentType":5126,"type":"VEC4","count":30,"bufferView":47,"byteOffset":0},{"componentType":5126,"type":"VEC4","count":30,"bufferView":48,"byteOffset":0},{"componentType":5126,"type":"VEC4","count":30,"bufferView":49,"byteOffset":0},{"componentType":5126,"type":"VEC4","count":30,"bufferView":50,"byteOffset":0},{"componentType":5126,"type":"VEC4","count":30,"bufferView":51,"byteOffset":0},{"componentType":5126,"type":"VEC4","count":30,"bufferView":52,"byteOffset":0},{"componentType":5126,"type":"VEC4","count":30,"bufferView":53,"byteOffset":0},{"componentType":5126,"type":"VEC4","count":30,"bufferView":54,"byteOffset":0},{"componentType":5126,"type":"VEC4","count":30,"bufferView":55,"byteOffset":0},{"componentType":5126,"type":"VEC4","count":30,"bufferView":56,"byteOffset":0},{"componentType":5126,"type":"VEC4","count":30,"bufferView":57,"byteOffset":0},{"componentType":5126,"type":"VEC4","count":30,"bufferView":58,"byteOffset":0},{"componentType":5126,"type":"VEC4","count":30,"bufferView":59,"byteOffset":0},{"componentType":5126,"type":"VEC4","count":30,"bufferView":60,"byteOffset":0},{"componentType":5126,"type":"VEC4","count":30,"bufferView":61,"byteOffset":0},{"componentType":5126,"type":"VEC4","count":30,"bufferView":62,"byteOffset":0},{"componentType":5126,"type":"VEC4","count":30,"bufferView":63,"byteOffset":0},{"componentType":5126,"type":"VEC4","count":30,"bufferView":64,"byteOffset":0},{"componentType":5126,"type":"VEC4","count":30,"bufferView":65,"byteOffset":0},{"componentType":5126,"type":"SCALAR","count":31,"bufferView":66,"byteOffset":0,"min":[0],"max":[1.25]},{"componentType":5126,"type":"VEC3","count":31,"bufferView":67,"byteOffset":0},{"componentType":5126,"type":"VEC4","count":31,"bufferView":68,"byteOffset":0},{"componentType":5126,"type":"VEC4","count":31,"bufferView":69,"byteOffset":0},{"componentType":5126,"type":"VEC4","count":31,"bufferView":70,"byteOffset":0},{"componentType":5126,"type":"VEC4","count":31,"bufferView":71,"byteOffset":0},{"componentType":5126,"type":"VEC4","count":31,"bufferView":72,"byteOffset":0},{"componentType":5126,"type":"VEC4","count":31,"bufferView":73,"byteOffset":0},{"componentType":5126,"type":"VEC4","count":31,"bufferView":74,"byteOffset":0},{"componentType":5126,"type":"VEC4","count":31,"bufferView":75,"byteOffset":0},{"componentType":5126,"type":"VEC4","count":31,"bufferView":76,"byteOffset":0},{"componentType":5126,"type":"VEC4","count":31,"bufferView":77,"byteOffset":0},{"componentType":5126,"type":"VEC4","count":31,"bufferView":78,"byteOffset":0},{"componentType":5126,"type":"VEC4","count":31,"bufferView":79,"byteOffset":0},{"componentType":5126,"type":"VEC4","count":31,"bufferView":80,"byteOffset":0},{"componentType":5126,"type":"SCALAR","count":31,"bufferView":81,"byteOffset":0,"min":[0],"max":[1.25]},{"componentType":5126,"type":"VEC3","count":31,"bufferView":82,"byteOffset":0},{"componentType":5126,"type":"VEC3","count":31,"bufferView":83,"byteOffset":0},{"componentType":5126,"type":"VEC4","count":31,"bufferView":84,"byteOffset":0},{"componentType":5126,"type":"VEC4","count":31,"bufferView":85,"byteOffset":0},{"componentType":5126,"type":"VEC4","count":31,"bufferView":86,"byteOffset":0},{"componentType":5126,"type":"VEC4","count":31,"bufferView":87,"byteOffset":0},{"componentType":5126,"type":"VEC4","count":31,"bufferView":88,"byteOffset":0},{"componentType":5126,"type":"VEC4","count":31,"bufferView":89,"byteOffset":0},{"componentType":5126,"type":"VEC4","count":31,"bufferView":90,"byteOffset":0},{"componentType":5126,"type":"VEC4","count":31,"bufferView":91,"byteOffset":0},{"componentType":5126,"type":"VEC4","count":31,"bufferView":92,"byteOffset":0},{"componentType":5126,"type":"VEC4","count":31,"bufferView":93,"byteOffset":0},{"componentType":5126,"type":"VEC4","count":31,"bufferView":94,"byteOffset":0},{"componentType":5126,"type":"VEC4","count":31,"bufferView":95,"byteOffset":0},{"componentType":5126,"type":"VEC3","count":31,"bufferView":96,"byteOffset":0},{"componentType":5126,"type":"VEC4","count":31,"bufferView":97,"byteOffset":0},{"componentType":5126,"type":"VEC4","count":31,"bufferView":98,"byteOffset":0},{"componentType":5126,"type":"VEC3","count":31,"bufferView":99,"byteOffset":0},{"componentType":5126,"type":"VEC4","count":31,"bufferView":100,"byteOffset":0},{"componentType":5126,"type":"VEC4","count":31,"bufferView":101,"byteOffset":0},{"componentType":5123,"type":"SCALAR","count":360,"bufferView":102,"byteOffset":0},{"componentType":5126,"type":"VEC3","count":360,"bufferView":103,"byteOffset":0,"min":[-0.00391751760616899,-0.00135338783729821,-0.00139478442724794],"max":[0.00391751760616899,0.00112011190503836,0.0010782671160996]},{"componentType":5126,"type":"VEC3","count":360,"bufferView":104,"byteOffset":0},{"componentType":5126,"type":"VEC2","count":360,"bufferView":105,"byteOffset":0},{"componentType":5126,"type":"VEC2","count":360,"bufferView":106,"byteOffset":0},{"componentType":5123,"type":"SCALAR","count":360,"bufferView":107,"byteOffset":0},{"componentType":5126,"type":"VEC3","count":280,"bufferView":108,"byteOffset":0,"min":[-0.00391635531559587,-0.000546698574908078,-0.000397729862015694],"max":[0.00391635531559587,0.00135338783729821,0.00139478442724794]},{"componentType":5126,"type":"VEC3","count":280,"bufferView":109,"byteOffset":0},{"componentType":5126,"type":"VEC2","count":280,"bufferView":110,"byteOffset":0},{"componentType":5126,"type":"VEC2","count":280,"bufferView":111,"byteOffset":0},{"componentType":5123,"type":"SCALAR","count":2070,"bufferView":112,"byteOffset":0},{"componentType":5126,"type":"VEC3","count":1438,"bufferView":113,"byteOffset":0,"min":[-0.0128410728648305,-0.0120886443182826,-0.020086545497179],"max":[0.0144907934591174,0.0301303621381521,0.0206948351114988]},{"componentType":5126,"type":"VEC3","count":1438,"bufferView":114,"byteOffset":0},{"componentType":5126,"type":"VEC2","count":1438,"bufferView":115,"byteOffset":0},{"componentType":5126,"type":"VEC2","count":1438,"bufferView":116,"byteOffset":0},{"componentType":5123,"type":"VEC4","count":1438,"bufferView":117,"byteOffset":0},{"componentType":5126,"type":"VEC4","count":1438,"bufferView":118,"byteOffset":0},{"componentType":5123,"type":"SCALAR","count":48,"bufferView":119,"byteOffset":0},{"componentType":5126,"type":"VEC3","count":36,"bufferView":120,"byteOffset":0,"min":[-0.00564236799255013,-0.00694765569642186,-0.0147177688777447],"max":[0.00564236799255013,0.000941867649089545,0.000585985602810979]},{"componentType":5126,"type":"VEC3","count":36,"bufferView":121,"byteOffset":0},{"componentType":5126,"type":"VEC2","count":36,"bufferView":122,"byteOffset":0},{"componentType":5126,"type":"VEC2","count":36,"bufferView":123,"byteOffset":0},{"componentType":5123,"type":"VEC4","count":36,"bufferView":124,"byteOffset":0},{"componentType":5126,"type":"VEC4","count":36,"bufferView":125,"byteOffset":0},{"componentType":5123,"type":"SCALAR","count":246,"bufferView":126,"byteOffset":0},{"componentType":5126,"type":"VEC3","count":178,"bufferView":127,"byteOffset":0,"min":[-0.0122663099318743,-0.00555911427363753,-0.0087133850902319],"max":[0.0139308366924524,0.0301303621381521,0.0184465907514095]},{"componentType":5126,"type":"VEC3","count":178,"bufferView":128,"byteOffset":0},{"componentType":5126,"type":"VEC2","count":178,"bufferView":129,"byteOffset":0},{"componentType":5126,"type":"VEC2","count":178,"bufferView":130,"byteOffset":0},{"componentType":5123,"type":"VEC4","count":178,"bufferView":131,"byteOffset":0},{"componentType":5126,"type":"VEC4","count":178,"bufferView":132,"byteOffset":0},{"componentType":5123,"type":"SCALAR","count":54,"bufferView":133,"byteOffset":0},{"componentType":5126,"type":"VEC3","count":38,"bufferView":134,"byteOffset":0,"min":[-0.0020440521184355,-0.0130090080201626,0.00347030069679022],"max":[0.0020440521184355,-0.0114524839445949,0.00539109110832214]},{"componentType":5126,"type":"VEC3","count":38,"bufferView":135,"byteOffset":0},{"componentType":5126,"type":"VEC2","count":38,"bufferView":136,"byteOffset":0},{"componentType":5126,"type":"VEC2","count":38,"bufferView":137,"byteOffset":0},{"componentType":5123,"type":"VEC4","count":38,"bufferView":138,"byteOffset":0},{"componentType":5126,"type":"VEC4","count":38,"bufferView":139,"byteOffset":0},{"componentType":5126,"type":"MAT4","count":23,"bufferView":140,"byteOffset":0}],"samplers":[{}],"materials":[{"name":"Eyes","alphaMode":"OPAQUE","extras":{"fromFBX":{"shadingModel":"Phong","isTruePBR":false}},"pbrMetallicRoughness":{"baseColorFactor":[0,0,0,1],"metallicFactor":0.400000005960464,"roughnessFactor":0.415087103843689}},{"name":"Main","alphaMode":"OPAQUE","extras":{"fromFBX":{"shadingModel":"Phong","isTruePBR":false}},"pbrMetallicRoughness":{"baseColorFactor":[0.0169752072542906,0.00876807793974876,0.0397652611136436,1],"metallicFactor":0.400000005960464,"roughnessFactor":0.415087103843689}},{"name":"Main","alphaMode":"OPAQUE","extras":{"fromFBX":{"shadingModel":"Phong","isTruePBR":false}},"pbrMetallicRoughness":{"baseColorFactor":[0.0169752072542906,0.00876807793974876,0.0397652611136436,1],"metallicFactor":0.400000005960464,"roughnessFactor":0.415087103843689}},{"name":"Belly","alphaMode":"OPAQUE","extras":{"fromFBX":{"shadingModel":"Phong","isTruePBR":false}},"pbrMetallicRoughness":{"baseColorFactor":[0.64000004529953,0.424309879541397,0.0728626772761345,1],"metallicFactor":0.400000005960464,"roughnessFactor":0.415087103843689}},{"name":"Black","alphaMode":"OPAQUE","extras":{"fromFBX":{"shadingModel":"Phong","isTruePBR":false}},"pbrMetallicRoughness":{"baseColorFactor":[0.00291368062607944,0.00291368062607944,0.00291368062607944,1],"metallicFactor":0.400000005960464,"roughnessFactor":0.415087103843689}},{"name":"Nose","alphaMode":"OPAQUE","extras":{"fromFBX":{"shadingModel":"Phong","isTruePBR":false}},"pbrMetallicRoughness":{"baseColorFactor":[0.122340939939022,0.0361489728093147,0.0817933902144432,1],"metallicFactor":0.400000005960464,"roughnessFactor":0.415087103843689}}],"meshes":[{"name":"Eyes","primitives":[{"material":0,"mode":4,"attributes":{"NORMAL":104,"POSITION":103,"TEXCOORD_0":105,"TEXCOORD_1":106},"indices":102},{"material":2,"mode":4,"attributes":{"NORMAL":109,"POSITION":108,"TEXCOORD_0":110,"TEXCOORD_1":111},"indices":107}]},{"name":"Bat","primitives":[{"material":2,"mode":4,"attributes":{"JOINTS_0":117,"NORMAL":114,"POSITION":113,"TEXCOORD_0":115,"TEXCOORD_1":116,"WEIGHTS_0":118},"indices":112},{"material":3,"mode":4,"attributes":{"JOINTS_0":124,"NORMAL":121,"POSITION":120,"TEXCOORD_0":122,"TEXCOORD_1":123,"WEIGHTS_0":125},"indices":119},{"material":4,"mode":4,"attributes":{"JOINTS_0":131,"NORMAL":128,"POSITION":127,"TEXCOORD_0":129,"TEXCOORD_1":130,"WEIGHTS_0":132},"indices":126},{"material":5,"mode":4,"attributes":{"JOINTS_0":138,"NORMAL":135,"POSITION":134,"TEXCOORD_0":136,"TEXCOORD_1":137,"WEIGHTS_0":139},"indices":133}]}],"skins":[{"joints":[2,3,4,5,6,7,9,11,12,13,14,15,17,18,19,20,21,23,24,25,27,28,29],"inverseBindMatrices":140,"skeleton":2}],"animations":[{"name":"BatArmature|Bat_Attack","channels":[{"sampler":0,"target":{"node":3,"path":"translation"}},{"sampler":1,"target":{"node":3,"path":"rotation"}},{"sampler":2,"target":{"node":4,"path":"translation"}},{"sampler":3,"target":{"node":4,"path":"rotation"}},{"sampler":4,"target":{"node":6,"path":"rotation"}},{"sampler":5,"target":{"node":7,"path":"rotation"}},{"sampler":6,"target":{"node":9,"path":"rotation"}},{"sampler":7,"target":{"node":12,"path":"rotation"}},{"sampler":8,"target":{"node":13,"path":"rotation"}},{"sampler":9,"target":{"node":14,"path":"rotation"}},{"sampler":10,"target":{"node":15,"path":"rotation"}},{"sampler":11,"target":{"node":18,"path":"rotation"}},{"sampler":12,"target":{"node":19,"path":"rotation"}},{"sampler":13,"target":{"node":20,"path":"rotation"}},{"sampler":14,"target":{"node":21,"path":"rotation"}},{"sampler":15,"target":{"node":23,"path":"translation"}},{"sampler":16,"target":{"node":23,"path":"rotation"}},{"sampler":17,"target":{"node":25,"path":"rotation"}},{"sampler":18,"target":{"node":27,"path":"translation"}},{"sampler":19,"target":{"node":27,"path":"rotation"}},{"sampler":20,"target":{"node":29,"path":"rotation"}}],"samplers":[{"input":0,"interpolation":"LINEAR","output":1},{"input":0,"interpolation":"LINEAR","output":2},{"input":0,"interpolation":"LINEAR","output":3},{"input":0,"interpolation":"LINEAR","output":4},{"input":0,"interpolation":"LINEAR","output":5},{"input":0,"interpolation":"LINEAR","output":6},{"input":0,"interpolation":"LINEAR","output":7},{"input":0,"interpolation":"LINEAR","output":8},{"input":0,"interpolation":"LINEAR","output":9},{"input":0,"interpolation":"LINEAR","output":10},{"input":0,"interpolation":"LINEAR","output":11},{"input":0,"interpolation":"LINEAR","output":12},{"input":0,"interpolation":"LINEAR","output":13},{"input":0,"interpolation":"LINEAR","output":14},{"input":0,"interpolation":"LINEAR","output":15},{"input":0,"interpolation":"LINEAR","output":16},{"input":0,"interpolation":"LINEAR","output":17},{"input":0,"interpolation":"LINEAR","output":18},{"input":0,"interpolation":"LINEAR","output":19},{"input":0,"interpolation":"LINEAR","output":20},{"input":0,"interpolation":"LINEAR","output":21}]},{"name":"BatArmature|Bat_Attack2","channels":[{"sampler":0,"target":{"node":3,"path":"translation"}},{"sampler":1,"target":{"node":4,"path":"translation"}},{"sampler":2,"target":{"node":4,"path":"rotation"}},{"sampler":3,"target":{"node":5,"path":"rotation"}},{"sampler":4,"target":{"node":6,"path":"rotation"}},{"sampler":5,"target":{"node":7,"path":"rotation"}},{"sampler":6,"target":{"node":12,"path":"rotation"}},{"sampler":7,"target":{"node":13,"path":"rotation"}},{"sampler":8,"target":{"node":14,"path":"rotation"}},{"sampler":9,"target":{"node":15,"path":"rotation"}},{"sampler":10,"target":{"node":18,"path":"rotation"}},{"sampler":11,"target":{"node":19,"path":"rotation"}},{"sampler":12,"target":{"node":20,"path":"rotation"}},{"sampler":13,"target":{"node":21,"path":"rotation"}},{"sampler":14,"target":{"node":23,"path":"translation"}},{"sampler":15,"target":{"node":23,"path":"rotation"}},{"sampler":16,"target":{"node":25,"path":"rotation"}},{"sampler":17,"target":{"node":27,"path":"translation"}},{"sampler":18,"target":{"node":27,"path":"rotation"}},{"sampler":19,"target":{"node":29,"path":"rotation"}}],"samplers":[{"input":22,"interpolation":"LINEAR","output":23},{"input":22,"interpolation":"LINEAR","output":24},{"input":22,"interpolation":"LINEAR","output":25},{"input":22,"interpolation":"LINEAR","output":26},{"input":22,"interpolation":"LINEAR","output":27},{"input":22,"interpolation":"LINEAR","output":28},{"input":22,"interpolation":"LINEAR","output":29},{"input":22,"interpolation":"LINEAR","output":30},{"input":22,"interpolation":"LINEAR","output":31},{"input":22,"interpolation":"LINEAR","output":32},{"input":22,"interpolation":"LINEAR","output":33},{"input":22,"interpolation":"LINEAR","output":34},{"input":22,"interpolation":"LINEAR","output":35},{"input":22,"interpolation":"LINEAR","output":36},{"input":22,"interpolation":"LINEAR","output":37},{"input":22,"interpolation":"LINEAR","output":38},{"input":22,"interpolation":"LINEAR","output":39},{"input":22,"interpolation":"LINEAR","output":40},{"input":22,"interpolation":"LINEAR","output":41},{"input":22,"interpolation":"LINEAR","output":42}]},{"name":"BatArmature|Bat_Death","channels":[{"sampler":0,"target":{"node":3,"path":"translation"}},{"sampler":1,"target":{"node":3,"path":"rotation"}},{"sampler":2,"target":{"node":4,"path":"translation"}},{"sampler":3,"target":{"node":4,"path":"rotation"}},{"sampler":4,"target":{"node":5,"path":"rotation"}},{"sampler":5,"target":{"node":6,"path":"rotation"}},{"sampler":6,"target":{"node":7,"path":"rotation"}},{"sampler":7,"target":{"node":11,"path":"rotation"}},{"sampler":8,"target":{"node":12,"path":"rotation"}},{"sampler":9,"target":{"node":13,"path":"rotation"}},{"sampler":10,"target":{"node":14,"path":"rotation"}},{"sampler":11,"target":{"node":15,"path":"rotation"}},{"sampler":12,"target":{"node":18,"path":"rotation"}},{"sampler":13,"target":{"node":19,"path":"rotation"}},{"sampler":14,"target":{"node":20,"path":"rotation"}},{"sampler":15,"target":{"node":21,"path":"rotation"}},{"sampler":16,"target":{"node":23,"path":"rotation"}},{"sampler":17,"target":{"node":24,"path":"rotation"}},{"sampler":18,"target":{"node":25,"path":"rotation"}},{"sampler":19,"target":{"node":27,"path":"rotation"}},{"sampler":20,"target":{"node":28,"path":"rotation"}},{"sampler":21,"target":{"node":29,"path":"rotation"}}],"samplers":[{"input":43,"interpolation":"LINEAR","output":44},{"input":43,"interpolation":"LINEAR","output":45},{"input":43,"interpolation":"LINEAR","output":46},{"input":43,"interpolation":"LINEAR","output":47},{"input":43,"interpolation":"LINEAR","output":48},{"input":43,"interpolation":"LINEAR","output":49},{"input":43,"interpolation":"LINEAR","output":50},{"input":43,"interpolation":"LINEAR","output":51},{"input":43,"interpolation":"LINEAR","output":52},{"input":43,"interpolation":"LINEAR","output":53},{"input":43,"interpolation":"LINEAR","output":54},{"input":43,"interpolation":"LINEAR","output":55},{"input":43,"interpolation":"LINEAR","output":56},{"input":43,"interpolation":"LINEAR","output":57},{"input":43,"interpolation":"LINEAR","output":58},{"input":43,"interpolation":"LINEAR","output":59},{"input":43,"interpolation":"LINEAR","output":60},{"input":43,"interpolation":"LINEAR","output":61},{"input":43,"interpolation":"LINEAR","output":62},{"input":43,"interpolation":"LINEAR","output":63},{"input":43,"interpolation":"LINEAR","output":64},{"input":43,"interpolation":"LINEAR","output":65}]},{"name":"BatArmature|Bat_Flying","channels":[{"sampler":0,"target":{"node":3,"path":"translation"}},{"sampler":1,"target":{"node":4,"path":"rotation"}},{"sampler":2,"target":{"node":6,"path":"rotation"}},{"sampler":3,"target":{"node":7,"path":"rotation"}},{"sampler":4,"target":{"node":12,"path":"rotation"}},{"sampler":5,"target":{"node":13,"path":"rotation"}},{"sampler":6,"target":{"node":14,"path":"rotation"}},{"sampler":7,"target":{"node":15,"path":"rotation"}},{"sampler":8,"target":{"node":18,"path":"rotation"}},{"sampler":9,"target":{"node":19,"path":"rotation"}},{"sampler":10,"target":{"node":20,"path":"rotation"}},{"sampler":11,"target":{"node":21,"path":"rotation"}},{"sampler":12,"target":{"node":25,"path":"rotation"}},{"sampler":13,"target":{"node":29,"path":"rotation"}}],"samplers":[{"input":66,"interpolation":"LINEAR","output":67},{"input":66,"interpolation":"LINEAR","output":68},{"input":66,"interpolation":"LINEAR","output":69},{"input":66,"interpolation":"LINEAR","output":70},{"input":66,"interpolation":"LINEAR","output":71},{"input":66,"interpolation":"LINEAR","output":72},{"input":66,"interpolation":"LINEAR","output":73},{"input":66,"interpolation":"LINEAR","output":74},{"input":66,"interpolation":"LINEAR","output":75},{"input":66,"interpolation":"LINEAR","output":76},{"input":66,"interpolation":"LINEAR","output":77},{"input":66,"interpolation":"LINEAR","output":78},{"input":66,"interpolation":"LINEAR","output":79},{"input":66,"interpolation":"LINEAR","output":80}]},{"name":"BatArmature|Bat_Hit","channels":[{"sampler":0,"target":{"node":3,"path":"translation"}},{"sampler":1,"target":{"node":4,"path":"translation"}},{"sampler":2,"target":{"node":4,"path":"rotation"}},{"sampler":3,"target":{"node":5,"path":"rotation"}},{"sampler":4,"target":{"node":6,"path":"rotation"}},{"sampler":5,"target":{"node":7,"path":"rotation"}},{"sampler":6,"target":{"node":12,"path":"rotation"}},{"sampler":7,"target":{"node":13,"path":"rotation"}},{"sampler":8,"target":{"node":14,"path":"rotation"}},{"sampler":9,"target":{"node":15,"path":"rotation"}},{"sampler":10,"target":{"node":18,"path":"rotation"}},{"sampler":11,"target":{"node":19,"path":"rotation"}},{"sampler":12,"target":{"node":20,"path":"rotation"}},{"sampler":13,"target":{"node":21,"path":"rotation"}},{"sampler":14,"target":{"node":23,"path":"translation"}},{"sampler":15,"target":{"node":23,"path":"rotation"}},{"sampler":16,"target":{"node":25,"path":"rotation"}},{"sampler":17,"target":{"node":27,"path":"translation"}},{"sampler":18,"target":{"node":27,"path":"rotation"}},{"sampler":19,"target":{"node":29,"path":"rotation"}}],"samplers":[{"input":81,"interpolation":"LINEAR","output":82},{"input":81,"interpolation":"LINEAR","output":83},{"input":81,"interpolation":"LINEAR","output":84},{"input":81,"interpolation":"LINEAR","output":85},{"input":81,"interpolation":"LINEAR","output":86},{"input":81,"interpolation":"LINEAR","output":87},{"input":81,"interpolation":"LINEAR","output":88},{"input":81,"interpolation":"LINEAR","output":89},{"input":81,"interpolation":"LINEAR","output":90},{"input":81,"interpolation":"LINEAR","output":91},{"input":81,"interpolation":"LINEAR","output":92},{"input":81,"interpolation":"LINEAR","output":93},{"input":81,"interpolation":"LINEAR","output":94},{"input":81,"interpolation":"LINEAR","output":95},{"input":81,"interpolation":"LINEAR","output":96},{"input":81,"interpolation":"LINEAR","output":97},{"input":81,"interpolation":"LINEAR","output":98},{"input":81,"interpolation":"LINEAR","output":99},{"input":81,"interpolation":"LINEAR","output":100},{"input":81,"interpolation":"LINEAR","output":101}]}],"nodes":[{"name":"RootNode","translation":[0,0,0],"rotation":[0,0,0,1],"scale":[1,1,1],"children":[1,31]},{"name":"BatArmature","translation":[0,0,-2.3283064365387e-10],"rotation":[-0.707106828689575,0,0,0.707106709480286],"scale":[100,100,100],"children":[2]},{"name":"Root","translation":[-1.71111625828243e-18,-0.0000356514756276738,-0.000349899899447337],"rotation":[0.709629416465759,7.99887050751557e-24,4.30047706455412e-16,0.70457512140274],"scale":[1,0.999999940395355,0.999999940395355],"children":[3]},{"name":"BodyRoot","translation":[8.88878029209888e-18,0.012983507476747,0.0000637546618236229],"rotation":[-0.00357388681732118,-3.04089539685063e-16,-3.04089407336165e-16,0.999993622303009],"scale":[1,0.999999940395355,0.999999940395355],"children":[4,23,27]},{"name":"Body","translation":[-3.41257807804544e-18,0.00311096664518118,0.0000123489053294179],"rotation":[0.153227940201759,0.000129936379380524,0.000128269835840911,0.988190829753876],"scale":[1,1,0.999999940395355],"children":[5,11,17]},{"name":"Neck","translation":[-1.62630322237755e-21,0.00976448692381382,8.72253658190658e-10],"rotation":[-0.0812874212861061,5.31613362517866e-17,1.93790707925245e-8,0.996690690517426],"scale":[1,0.999999940395355,1],"children":[6]},{"name":"Head","translation":[2.18278723546593e-13,0.00229454366490245,7.25165205661682e-10],"rotation":[0.00380752328783274,0.997358858585358,0.0725284963846207,0.000628125213552266],"scale":[0.999999821186066,0.999999761581421,1],"children":[7]},{"name":"Face","translation":[5.23868925669801e-12,0.00351293198764324,9.3932611688885e-11],"rotation":[-0.691922068595886,0.00428186263889074,-0.00137094222009182,0.721958220005035],"scale":[0.99999988079071,0.99999988079071,1],"children":[8,9]},{"name":"Eyes","translation":[0.0000268487583525712,0.00432558730244637,0.00161448714789003],"rotation":[-0.00000114023498554161,-0.130908831954002,0.991394400596619,-1.06471702565614e-7],"scale":[1.66457283496857,1.66457271575928,1.66457271575928],"mesh":0},{"name":"Nose","translation":[0,0.00503233075141907,5.56304691201603e-9],"rotation":[-0.0266050770878792,-0.00000193514392776706,-8.5304350250226e-9,0.999646008014679],"scale":[1,1.00000011920929,1],"children":[10]},{"name":"Nose_end","translation":[1.73472343720272e-20,0.00335065415129066,-4.44089199923895e-18],"rotation":[-2.77555756156289e-17,-1.0842021724855e-19,-2.16840434497101e-19,1],"scale":[1,1,1]},{"name":"Shoulder.L","translation":[0.00252512469887733,0.00138384534511715,-0.00198026257567108],"rotation":[-0.175616607069969,-0.040101807564497,-0.164882183074951,0.96972393989563],"scale":[1,1,1],"children":[12]},{"name":"Wing1.L","translation":[5.63450119894782e-10,0.0035703347530216,-1.67638056214336e-10],"rotation":[-0.474408864974976,-0.488700270652771,-0.180662930011749,0.709555625915527],"scale":[0.999999940395355,0.999999940395355,1],"children":[13]},{"name":"Wing2.L","translation":[2.98023217215615e-10,0.0051878453232348,-9.82545267369517e-10],"rotation":[-0.34059664607048,-0.0217131972312927,-0.419199019670486,0.841305315494537],"scale":[1,1.00000011920929,1.00000023841858],"children":[14]},{"name":"Wing3.L","translation":[7.45058043039037e-11,0.00620857812464237,3.72529007641731e-10],"rotation":[-0.375313431024551,0.293062269687653,0.0697950571775436,0.876574575901031],"scale":[1,1,1],"children":[15]},{"name":"Wing4.L","translation":[1.49011608607807e-10,0.00678137456998229,1.49011603056692e-9],"rotation":[-0.157666623592377,0.32522851228714,0.0402595438063145,0.93152928352356],"scale":[0.99999988079071,0.99999988079071,0.99999988079071],"children":[16]},{"name":"Wing4.L_end","translation":[0,0.00986745487898588,1.38777869806338e-18],"rotation":[2.88889491658085e-34,1.38777878078145e-17,-2.08166817117217e-17,1],"scale":[1,1,1]},{"name":"Shoulder.R","translation":[-0.00256376806646585,0.00138384499587119,-0.00198026094585657],"rotation":[-0.169612139463425,0.00542218191549182,0.171052798628807,0.970537602901459],"scale":[0.999999940395355,1,1],"children":[18]},{"name":"Wing1.R","translation":[5.16884035572929e-10,0.0035703326575458,-7.45058043039037e-11],"rotation":[-0.278923869132996,-0.0179062988609076,0.409491866827011,0.868445336818695],"scale":[0.999999940395355,1,1.00000011920929],"children":[19]},{"name":"Wing2.R","translation":[3.05473801809342e-9,0.00548566225916147,1.19209286886246e-9],"rotation":[0.374984353780746,-0.203742682933807,0.287625461816788,0.85740727186203],"scale":[1,1,1],"children":[20]},{"name":"Wing3.R","translation":[7.45058043039037e-11,0.00620857998728752,2.23517412911711e-10],"rotation":[-0.207845345139503,0.341404765844345,0.353384435176849,0.845791041851044],"scale":[1,1,1],"children":[21]},{"name":"Wing4.R","translation":[1.49011603056692e-9,0.006781374104321,1.11022299980974e-18],"rotation":[-0.143682867288589,0.340814262628555,-0.0775887295603752,0.925840616226196],"scale":[1,1.00000011920929,0.999999940395355],"children":[22]},{"name":"Wing4.R_end","translation":[2.22044599961948e-18,0.00986745208501816,-2.22044599961948e-18],"rotation":[-3.46944695195361e-17,2.77555756156289e-17,-2.77555756156289e-17,1],"scale":[1,1,1]},{"name":"UpperLeg.L","translation":[0.00523675372824073,-0.000347531953593716,-0.00138870149385184],"rotation":[0.00298642599955201,-0.0220013558864594,0.998245775699615,-0.054884921759367],"scale":[1.00001132488251,1.00000011920929,1.00000190734863],"children":[24]},{"name":"LowerLeg.L","translation":[5.13973641425025e-10,0.00264230743050575,3.25962902503196e-11],"rotation":[-0.209065601229668,0.715189218521118,-0.443622529506683,0.497990995645523],"scale":[1.00000011920929,1.00000035762787,1],"children":[25]},{"name":"Feet.L","translation":[5.9604643443123e-10,0.00305020739324391,-5.21540644005114e-10],"rotation":[-0.101157486438751,-0.146007642149925,0.624708414077759,0.760386943817139],"scale":[1,1,1.00000011920929],"children":[26]},{"name":"Feet.L_end","translation":[-2.77555749952435e-19,0.00564192468300462,-1.11022299980974e-18],"rotation":[0,-2.08166817117217e-17,0,1],"scale":[1,1,1]},{"name":"UpperLeg.R","translation":[-0.00499120354652405,-0.000347531953593716,-0.00138870149385184],"rotation":[-0.000597815145738423,-0.0218101870268583,0.994491696357727,0.102519489824772],"scale":[0.999999284744263,1,1],"children":[28]},{"name":"LowerLeg.R","translation":[-1.05064824895695e-10,0.0026827841065824,1.23400234475213e-10],"rotation":[-0.389419883489609,0.648249626159668,-0.303527235984802,0.579651415348053],"scale":[1.00000011920929,1.00000011920929,1.00000011920929],"children":[29]},{"name":"Feet.R","translation":[-1.19209286886246e-9,0.00304104131646454,2.23517412911711e-10],"rotation":[-0.0326842665672302,-0.127278327941895,0.653337121009827,0.745575308799744],"scale":[0.999999701976776,1,1],"children":[30]},{"name":"Feet.R_end","translation":[2.77555749952435e-19,0.00564337428659201,-1.11022299980974e-18],"rotation":[-1.73472347597681e-18,-4.81482486096809e-35,2.77555756156289e-17,1],"scale":[1,1,1]},{"name":"Bat","translation":[2.34802668116135e-16,2.43646097183228,0.129129379987717],"rotation":[-0.707106828689575,0,0,0.707106709480286],"scale":[100,100,100],"mesh":1,"skin":0}]}